<svg width="804" height="125" viewBox="0 0 804 125" fill="none" xmlns="http://www.w3.org/2000/svg">
<mask id="path-1-outside-1" maskUnits="userSpaceOnUse" x="0" y="0" width="804" height="125" fill="black">
<rect fill="white" width="804" height="125"/>
<path d="M20.4712 118.715C17.041 118.715 14.2003 117.912 11.9493 116.306C9.69819 114.593 8.51906 111.22 8.41186 106.187L6 6.28491H28.0283L27.546 86.1103H27.8675L64.2063 12.2276H72.2458C77.9271 12.2276 81.2501 15.4399 82.2148 21.8645L90.7367 85.9497H91.0583L119.197 6.28491H141.868L104.082 106.187C102.474 110.47 100.331 113.629 97.6507 115.663C95.0781 117.698 91.8087 118.715 87.8425 118.715H78.5166L68.0652 41.6201H67.7437L29.797 118.715H20.4712Z"/>
<path d="M175.328 120C167.503 120 160.696 118.608 154.907 115.824C149.226 112.933 144.831 108.918 141.722 103.778C138.614 98.5312 137.06 92.4814 137.06 85.6285C137.06 83.2728 137.328 80.3817 137.863 76.9553L143.009 48.0447C145.474 34.446 150.834 23.899 159.088 16.4036C167.342 8.80121 177.954 5 190.924 5H207.968C219.974 5 229.407 8.10521 236.267 14.3156C243.235 20.419 246.719 28.6639 246.719 39.0503C246.719 41.6201 246.451 44.6182 245.915 48.0447L240.77 76.9553C238.411 90.554 232.998 101.155 224.53 108.757C216.169 116.252 205.449 120 192.372 120H175.328ZM193.658 100.405C200.197 100.405 205.664 98.2635 210.059 93.9804C214.453 89.6974 217.348 83.7011 218.741 75.9916L223.565 49.0084C223.887 46.8668 224.047 44.8859 224.047 43.0656C224.047 37.3906 222.547 32.8934 219.545 29.574C216.544 26.2547 212.363 24.595 207.004 24.595H189.96C183.528 24.595 178.115 26.7365 173.72 31.0196C169.325 35.3026 166.431 41.2989 165.037 49.0084L160.213 75.9916C159.892 78.0261 159.731 80.007 159.731 81.9343C159.731 87.6094 161.232 92.1066 164.233 95.426C167.235 98.7453 171.362 100.405 176.614 100.405H193.658Z"/>
<path d="M269.814 6.28491H327.055C336.381 6.28491 343.777 8.42644 349.244 12.7095C354.818 16.9925 357.605 22.7211 357.605 29.8952C357.605 31.3943 357.445 33.054 357.123 34.8743L355.194 46.1173C354.229 51.6853 351.763 56.5573 347.797 60.7332C343.831 64.8021 338.686 67.9074 332.361 70.0489V70.3701C335.47 72.6187 337.614 75.1885 338.793 78.0796C340.079 80.9707 341.098 84.986 341.848 90.1257L345.868 118.715H322.875L319.016 92.0531C318.372 87.4488 317.033 84.0223 314.996 81.7737C312.959 79.5251 310.119 78.4008 306.474 78.4008H279.3L272.226 118.715H250.036L269.814 6.28491ZM316.121 59.2877C320.624 59.2877 324.375 58.1099 327.377 55.7542C330.485 53.2914 332.361 50.1327 333.004 46.2779L334.773 35.838C334.88 35.4097 334.934 34.7672 334.934 33.9106C334.934 31.3408 334.13 29.3063 332.522 27.8073C330.914 26.3082 328.717 25.5587 325.93 25.5587H288.626L282.677 59.2877H316.121Z"/>
<path d="M418.02 55.5936L456.127 118.715H430.723L401.298 70.6913L387.47 83.0587L381.199 118.715H359.01L378.787 6.28491H400.976L392.615 53.6662L444.551 6.28491H473.01L418.02 55.5936Z"/>
<path d="M502.248 120C494.423 120 487.616 118.608 481.828 115.824C476.146 112.933 471.751 108.918 468.643 103.778C465.534 98.5312 463.98 92.4814 463.98 85.6285C463.98 83.2728 464.248 80.3817 464.784 76.9553L469.929 48.0447C472.395 34.446 477.754 23.899 486.008 16.4036C494.262 8.80121 504.874 5 517.845 5H534.889C546.894 5 556.327 8.10521 563.188 14.3156C570.155 20.419 573.639 28.6639 573.639 39.0503C573.639 41.6201 573.371 44.6182 572.835 48.0447L567.69 76.9553C565.332 90.554 559.918 101.155 551.45 108.757C543.089 116.252 532.37 120 519.292 120H502.248ZM520.578 100.405C527.117 100.405 532.584 98.2635 536.979 93.9804C541.374 89.6974 544.268 83.7011 545.661 75.9916L550.485 49.0084C550.807 46.8668 550.968 44.8859 550.968 43.0656C550.968 37.3906 549.467 32.8934 546.466 29.574C543.464 26.2547 539.284 24.595 533.924 24.595H516.88C510.448 24.595 505.035 26.7365 500.64 31.0196C496.245 35.3026 493.351 41.2989 491.957 49.0084L487.134 75.9916C486.812 78.0261 486.651 80.007 486.651 81.9343C486.651 87.6094 488.152 92.1066 491.153 95.426C494.155 98.7453 498.282 100.405 503.534 100.405H520.578Z"/>
<path d="M618.441 120C607.293 120 598.503 117.055 592.071 111.166C585.639 105.17 582.424 97.2998 582.424 87.5559C582.424 85.2002 582.692 82.5233 583.227 79.5251L596.091 6.28491H618.28L605.577 78.8827C605.256 80.8101 605.095 82.6304 605.095 84.3436C605.095 89.2691 606.328 93.1774 608.793 96.0684C611.366 98.9595 614.903 100.405 619.405 100.405H636.449C642.13 100.405 646.901 98.5312 650.76 94.7835C654.619 90.9288 657.138 85.6285 658.317 78.8827L671.019 6.28491H693.208L680.345 79.5251C678.094 92.2672 673.056 102.225 665.231 109.399C657.406 116.466 647.49 120 635.484 120H618.441Z"/>
<path d="M736.739 25.5587H701.043L704.42 6.28491H798L794.623 25.5587H758.928L742.527 118.715H720.338L736.739 25.5587Z"/>
</mask>
<path d="M20.4712 118.715C17.041 118.715 14.2003 117.912 11.9493 116.306C9.69819 114.593 8.51906 111.22 8.41186 106.187L6 6.28491H28.0283L27.546 86.1103H27.8675L64.2063 12.2276H72.2458C77.9271 12.2276 81.2501 15.4399 82.2148 21.8645L90.7367 85.9497H91.0583L119.197 6.28491H141.868L104.082 106.187C102.474 110.47 100.331 113.629 97.6507 115.663C95.0781 117.698 91.8087 118.715 87.8425 118.715H78.5166L68.0652 41.6201H67.7437L29.797 118.715H20.4712Z" stroke="white" stroke-width="10" mask="url(#path-1-outside-1)"/>
<path d="M175.328 120C167.503 120 160.696 118.608 154.907 115.824C149.226 112.933 144.831 108.918 141.722 103.778C138.614 98.5312 137.06 92.4814 137.06 85.6285C137.06 83.2728 137.328 80.3817 137.863 76.9553L143.009 48.0447C145.474 34.446 150.834 23.899 159.088 16.4036C167.342 8.80121 177.954 5 190.924 5H207.968C219.974 5 229.407 8.10521 236.267 14.3156C243.235 20.419 246.719 28.6639 246.719 39.0503C246.719 41.6201 246.451 44.6182 245.915 48.0447L240.77 76.9553C238.411 90.554 232.998 101.155 224.53 108.757C216.169 116.252 205.449 120 192.372 120H175.328ZM193.658 100.405C200.197 100.405 205.664 98.2635 210.059 93.9804C214.453 89.6974 217.348 83.7011 218.741 75.9916L223.565 49.0084C223.887 46.8668 224.047 44.8859 224.047 43.0656C224.047 37.3906 222.547 32.8934 219.545 29.574C216.544 26.2547 212.363 24.595 207.004 24.595H189.96C183.528 24.595 178.115 26.7365 173.72 31.0196C169.325 35.3026 166.431 41.2989 165.037 49.0084L160.213 75.9916C159.892 78.0261 159.731 80.007 159.731 81.9343C159.731 87.6094 161.232 92.1066 164.233 95.426C167.235 98.7453 171.362 100.405 176.614 100.405H193.658Z" stroke="white" stroke-width="10" mask="url(#path-1-outside-1)"/>
<path d="M269.814 6.28491H327.055C336.381 6.28491 343.777 8.42644 349.244 12.7095C354.818 16.9925 357.605 22.7211 357.605 29.8952C357.605 31.3943 357.445 33.054 357.123 34.8743L355.194 46.1173C354.229 51.6853 351.763 56.5573 347.797 60.7332C343.831 64.8021 338.686 67.9074 332.361 70.0489V70.3701C335.47 72.6187 337.614 75.1885 338.793 78.0796C340.079 80.9707 341.098 84.986 341.848 90.1257L345.868 118.715H322.875L319.016 92.0531C318.372 87.4488 317.033 84.0223 314.996 81.7737C312.959 79.5251 310.119 78.4008 306.474 78.4008H279.3L272.226 118.715H250.036L269.814 6.28491ZM316.121 59.2877C320.624 59.2877 324.375 58.1099 327.377 55.7542C330.485 53.2914 332.361 50.1327 333.004 46.2779L334.773 35.838C334.88 35.4097 334.934 34.7672 334.934 33.9106C334.934 31.3408 334.13 29.3063 332.522 27.8073C330.914 26.3082 328.717 25.5587 325.93 25.5587H288.626L282.677 59.2877H316.121Z" stroke="white" stroke-width="10" mask="url(#path-1-outside-1)"/>
<path d="M418.02 55.5936L456.127 118.715H430.723L401.298 70.6913L387.47 83.0587L381.199 118.715H359.01L378.787 6.28491H400.976L392.615 53.6662L444.551 6.28491H473.01L418.02 55.5936Z" stroke="white" stroke-width="10" mask="url(#path-1-outside-1)"/>
<path d="M502.248 120C494.423 120 487.616 118.608 481.828 115.824C476.146 112.933 471.751 108.918 468.643 103.778C465.534 98.5312 463.98 92.4814 463.98 85.6285C463.98 83.2728 464.248 80.3817 464.784 76.9553L469.929 48.0447C472.395 34.446 477.754 23.899 486.008 16.4036C494.262 8.80121 504.874 5 517.845 5H534.889C546.894 5 556.327 8.10521 563.188 14.3156C570.155 20.419 573.639 28.6639 573.639 39.0503C573.639 41.6201 573.371 44.6182 572.835 48.0447L567.69 76.9553C565.332 90.554 559.918 101.155 551.45 108.757C543.089 116.252 532.37 120 519.292 120H502.248ZM520.578 100.405C527.117 100.405 532.584 98.2635 536.979 93.9804C541.374 89.6974 544.268 83.7011 545.661 75.9916L550.485 49.0084C550.807 46.8668 550.968 44.8859 550.968 43.0656C550.968 37.3906 549.467 32.8934 546.466 29.574C543.464 26.2547 539.284 24.595 533.924 24.595H516.88C510.448 24.595 505.035 26.7365 500.64 31.0196C496.245 35.3026 493.351 41.2989 491.957 49.0084L487.134 75.9916C486.812 78.0261 486.651 80.007 486.651 81.9343C486.651 87.6094 488.152 92.1066 491.153 95.426C494.155 98.7453 498.282 100.405 503.534 100.405H520.578Z" stroke="white" stroke-width="10" mask="url(#path-1-outside-1)"/>
<path d="M618.441 120C607.293 120 598.503 117.055 592.071 111.166C585.639 105.17 582.424 97.2998 582.424 87.5559C582.424 85.2002 582.692 82.5233 583.227 79.5251L596.091 6.28491H618.28L605.577 78.8827C605.256 80.8101 605.095 82.6304 605.095 84.3436C605.095 89.2691 606.328 93.1774 608.793 96.0684C611.366 98.9595 614.903 100.405 619.405 100.405H636.449C642.13 100.405 646.901 98.5312 650.76 94.7835C654.619 90.9288 657.138 85.6285 658.317 78.8827L671.019 6.28491H693.208L680.345 79.5251C678.094 92.2672 673.056 102.225 665.231 109.399C657.406 116.466 647.49 120 635.484 120H618.441Z" stroke="white" stroke-width="10" mask="url(#path-1-outside-1)"/>
<path d="M736.739 25.5587H701.043L704.42 6.28491H798L794.623 25.5587H758.928L742.527 118.715H720.338L736.739 25.5587Z" stroke="white" stroke-width="10" mask="url(#path-1-outside-1)"/>
</svg>
